<svg xmlns="http://www.w3.org/2000/svg" xmlns:xlink="http://www.w3.org/1999/xlink" width="500" zoomAndPan="magnify" viewBox="0 0 375 149.999998" height="200" preserveAspectRatio="xMidYMid meet" version="1.0"><defs><g/><clipPath id="a29cf385f5"><path d="M 12.601562 35 L 93.601562 35 L 93.601562 115.0625 L 12.601562 115.0625 Z M 12.601562 35 " clip-rule="nonzero"/></clipPath></defs><g clip-path="url(#a29cf385f5)"><path fill="#7baf2f" d="M 43.886719 69.539062 C 70.21875 68.792969 90.933594 82.257812 91.984375 109.308594 C 92.199219 114.621094 91.824219 115.027344 86.6875 115.027344 C 73.164062 115.046875 59.640625 115.0625 46.136719 115.027344 C 26.226562 114.976562 14.183594 103.75 13.273438 83.589844 C 12.613281 68.777344 12.917969 53.925781 12.757812 39.09375 C 12.722656 36.609375 13.433594 35.097656 16.183594 35.132812 C 32.417969 35.382812 48.703125 34.8125 64.867188 36.074219 C 79.816406 37.246094 90.734375 47.425781 92.5 60.871094 C 93.589844 69.132812 92.699219 77.65625 92.699219 87.335938 C 91.539062 84.070312 90.789062 81.917969 90.003906 79.769531 C 84.117188 63.800781 72.269531 55.382812 55.609375 55.3125 C 49.472656 55.277344 43.316406 55.328125 37.179688 55.292969 C 35.023438 55.277344 33.308594 55.703125 33.363281 58.386719 C 33.523438 66.289062 33.042969 74.265625 34.023438 82.0625 C 35.609375 94.621094 48.902344 100.054688 59.300781 92.933594 C 64.242188 89.539062 65.296875 82.628906 60.855469 78.597656 C 57.679688 75.722656 53.59375 73.855469 49.828125 71.707031 C 48.347656 70.871094 46.617188 70.515625 43.886719 69.539062 Z M 43.886719 69.539062 " fill-opacity="1" fill-rule="nonzero"/></g><g fill="#ffffff" fill-opacity="1"><g transform="translate(103.330281, 75.563659)"><g><path d="M 22.0625 -20.984375 L 9.296875 -20.984375 L 9.296875 -14.90625 L 21.0625 -14.90625 L 21.0625 -9.671875 L 9.296875 -9.671875 L 9.296875 0 L 2.625 0 L 2.625 -26.234375 L 22.0625 -26.234375 Z M 22.0625 -20.984375 "/></g></g></g><g fill="#ffffff" fill-opacity="1"><g transform="translate(129.290338, 75.563659)"><g><path d="M 15.0625 -26.453125 C 19.132812 -26.453125 22.519531 -25.179688 25.21875 -22.640625 C 27.914062 -20.109375 29.265625 -16.945312 29.265625 -13.15625 C 29.265625 -9.332031 27.90625 -6.132812 25.1875 -3.5625 C 22.476562 -0.988281 19.101562 0.296875 15.0625 0.296875 C 11.019531 0.296875 7.648438 -0.976562 4.953125 -3.53125 C 2.253906 -6.09375 0.90625 -9.300781 0.90625 -13.15625 C 0.90625 -16.976562 2.253906 -20.148438 4.953125 -22.671875 C 7.648438 -25.191406 11.019531 -26.453125 15.0625 -26.453125 Z M 15.140625 -20.875 C 13.085938 -20.875 11.335938 -20.128906 9.890625 -18.640625 C 8.441406 -17.148438 7.71875 -15.304688 7.71875 -13.109375 C 7.71875 -10.910156 8.445312 -9.054688 9.90625 -7.546875 C 11.375 -6.035156 13.117188 -5.28125 15.140625 -5.28125 C 17.160156 -5.28125 18.875 -6.035156 20.28125 -7.546875 C 21.695312 -9.054688 22.40625 -10.910156 22.40625 -13.109375 C 22.40625 -15.304688 21.695312 -17.148438 20.28125 -18.640625 C 18.875 -20.128906 17.160156 -20.875 15.140625 -20.875 Z M 15.140625 -20.875 "/></g></g></g><g fill="#ffffff" fill-opacity="1"><g transform="translate(162.779452, 75.563659)"><g><path d="M 15.0625 -26.453125 C 19.132812 -26.453125 22.519531 -25.179688 25.21875 -22.640625 C 27.914062 -20.109375 29.265625 -16.945312 29.265625 -13.15625 C 29.265625 -9.332031 27.90625 -6.132812 25.1875 -3.5625 C 22.476562 -0.988281 19.101562 0.296875 15.0625 0.296875 C 11.019531 0.296875 7.648438 -0.976562 4.953125 -3.53125 C 2.253906 -6.09375 0.90625 -9.300781 0.90625 -13.15625 C 0.90625 -16.976562 2.253906 -20.148438 4.953125 -22.671875 C 7.648438 -25.191406 11.019531 -26.453125 15.0625 -26.453125 Z M 15.140625 -20.875 C 13.085938 -20.875 11.335938 -20.128906 9.890625 -18.640625 C 8.441406 -17.148438 7.71875 -15.304688 7.71875 -13.109375 C 7.71875 -10.910156 8.445312 -9.054688 9.90625 -7.546875 C 11.375 -6.035156 13.117188 -5.28125 15.140625 -5.28125 C 17.160156 -5.28125 18.875 -6.035156 20.28125 -7.546875 C 21.695312 -9.054688 22.40625 -10.910156 22.40625 -13.109375 C 22.40625 -15.304688 21.695312 -17.148438 20.28125 -18.640625 C 18.875 -20.128906 17.160156 -20.875 15.140625 -20.875 Z M 15.140625 -20.875 "/></g></g></g><g fill="#ffffff" fill-opacity="1"><g transform="translate(196.268563, 75.563659)"><g><path d="M 2.625 -26.234375 L 13.90625 -26.234375 C 18.019531 -26.234375 21.367188 -25.019531 23.953125 -22.59375 C 26.546875 -20.164062 27.84375 -17.003906 27.84375 -13.109375 C 27.84375 -9.242188 26.53125 -6.09375 23.90625 -3.65625 C 21.28125 -1.21875 17.859375 0 13.640625 0 L 2.625 0 Z M 9.296875 -20.90625 L 9.296875 -5.328125 L 14.046875 -5.328125 C 16.097656 -5.328125 17.78125 -6.039062 19.09375 -7.46875 C 20.40625 -8.90625 21.0625 -10.773438 21.0625 -13.078125 C 21.0625 -15.378906 20.375 -17.257812 19 -18.71875 C 17.625 -20.175781 15.875 -20.90625 13.75 -20.90625 Z M 9.296875 -20.90625 "/></g></g></g><g fill="#ffffff" fill-opacity="1"><g transform="translate(228.334275, 75.563659)"><g/></g></g><g fill="#ffffff" fill-opacity="1"><g transform="translate(240.359966, 75.563659)"><g><path d="M 22.0625 -20.984375 L 9.296875 -20.984375 L 9.296875 -14.90625 L 21.0625 -14.90625 L 21.0625 -9.671875 L 9.296875 -9.671875 L 9.296875 0 L 2.625 0 L 2.625 -26.234375 L 22.0625 -26.234375 Z M 22.0625 -20.984375 "/></g></g></g><g fill="#ffffff" fill-opacity="1"><g transform="translate(266.320016, 75.563659)"><g><path d="M 9.296875 0 L 2.625 0 L 2.625 -26.234375 L 9.296875 -26.234375 Z M 9.296875 0 "/></g></g></g><g fill="#ffffff" fill-opacity="1"><g transform="translate(281.567089, 75.563659)"><g><path d="M 22.671875 -20.875 L 14.765625 -20.875 L 14.765625 0 L 8.09375 0 L 8.09375 -20.875 L 0.265625 -20.875 L 0.265625 -26.265625 L 22.671875 -26.265625 Z M 22.671875 -20.875 "/></g></g></g><g fill="#ffffff" fill-opacity="1"><g transform="translate(103.330281, 103.891742)"><g><path d="M 12.546875 -2.203125 L 12.546875 0 L 1.90625 0 L 1.90625 -14.203125 L 12.265625 -14.203125 L 12.265625 -11.984375 L 4.546875 -11.984375 L 4.546875 -8.296875 L 11.390625 -8.296875 L 11.390625 -6.125 L 4.546875 -6.125 L 4.546875 -2.203125 Z M 12.546875 -2.203125 "/></g></g></g><g fill="#ffffff" fill-opacity="1"><g transform="translate(118.332594, 103.891742)"><g><path d="M 14.515625 -14.203125 L 14.515625 0 L 12.34375 0 L 4.515625 -9.609375 L 4.515625 0 L 1.90625 0 L 1.90625 -14.203125 L 4.078125 -14.203125 L 11.90625 -4.578125 L 11.90625 -14.203125 Z M 14.515625 -14.203125 "/></g></g></g><g fill="#ffffff" fill-opacity="1"><g transform="translate(136.172868, 103.891742)"><g><path d="M 14.515625 -14.203125 L 14.515625 0 L 11.890625 0 L 11.890625 -6.078125 L 4.546875 -6.078125 L 4.546875 0 L 1.90625 0 L 1.90625 -14.203125 L 4.546875 -14.203125 L 4.546875 -8.328125 L 11.890625 -8.328125 L 11.890625 -14.203125 Z M 14.515625 -14.203125 "/></g></g></g><g fill="#ffffff" fill-opacity="1"><g transform="translate(154.013144, 103.891742)"><g><path d="M 11.109375 -3.28125 L 4.015625 -3.28125 L 2.609375 0 L -0.09375 0 L 6.28125 -14.203125 L 8.890625 -14.203125 L 15.296875 0 L 12.53125 0 Z M 10.234375 -5.359375 L 7.5625 -11.5625 L 4.90625 -5.359375 Z M 10.234375 -5.359375 "/></g></g></g><g fill="#ffffff" fill-opacity="1"><g transform="translate(170.616883, 103.891742)"><g><path d="M 14.515625 -14.203125 L 14.515625 0 L 12.34375 0 L 4.515625 -9.609375 L 4.515625 0 L 1.90625 0 L 1.90625 -14.203125 L 4.078125 -14.203125 L 11.90625 -4.578125 L 11.90625 -14.203125 Z M 14.515625 -14.203125 "/></g></g></g><g fill="#ffffff" fill-opacity="1"><g transform="translate(188.457154, 103.891742)"><g><path d="M 8.484375 0.203125 C 7.046875 0.203125 5.75 -0.109375 4.59375 -0.734375 C 3.4375 -1.367188 2.53125 -2.238281 1.875 -3.34375 C 1.21875 -4.457031 0.890625 -5.707031 0.890625 -7.09375 C 0.890625 -8.488281 1.21875 -9.738281 1.875 -10.84375 C 2.539062 -11.957031 3.453125 -12.828125 4.609375 -13.453125 C 5.765625 -14.085938 7.0625 -14.40625 8.5 -14.40625 C 9.65625 -14.40625 10.710938 -14.203125 11.671875 -13.796875 C 12.640625 -13.390625 13.453125 -12.800781 14.109375 -12.03125 L 12.40625 -10.421875 C 11.382812 -11.535156 10.125 -12.09375 8.625 -12.09375 C 7.644531 -12.09375 6.769531 -11.878906 6 -11.453125 C 5.226562 -11.023438 4.625 -10.429688 4.1875 -9.671875 C 3.757812 -8.910156 3.546875 -8.050781 3.546875 -7.09375 C 3.546875 -6.132812 3.757812 -5.273438 4.1875 -4.515625 C 4.625 -3.765625 5.226562 -3.175781 6 -2.75 C 6.769531 -2.320312 7.644531 -2.109375 8.625 -2.109375 C 10.125 -2.109375 11.382812 -2.671875 12.40625 -3.796875 L 14.109375 -2.171875 C 13.453125 -1.398438 12.640625 -0.8125 11.671875 -0.40625 C 10.703125 0 9.640625 0.203125 8.484375 0.203125 Z M 8.484375 0.203125 "/></g></g></g><g fill="#ffffff" fill-opacity="1"><g transform="translate(204.614916, 103.891742)"><g><path d="M 12.546875 -2.203125 L 12.546875 0 L 1.90625 0 L 1.90625 -14.203125 L 12.265625 -14.203125 L 12.265625 -11.984375 L 4.546875 -11.984375 L 4.546875 -8.296875 L 11.390625 -8.296875 L 11.390625 -6.125 L 4.546875 -6.125 L 4.546875 -2.203125 Z M 12.546875 -2.203125 "/></g></g></g><g fill="#ffffff" fill-opacity="1"><g transform="translate(219.617227, 103.891742)"><g/></g></g><g fill="#ffffff" fill-opacity="1"><g transform="translate(226.632752, 103.891742)"><g><path d="M 8.03125 -5.015625 L 8.03125 0 L 5.390625 0 L 5.390625 -4.96875 L -0.1875 -14.203125 L 2.640625 -14.203125 L 6.796875 -7.28125 L 11 -14.203125 L 13.59375 -14.203125 Z M 8.03125 -5.015625 "/></g></g></g><g fill="#ffffff" fill-opacity="1"><g transform="translate(241.452633, 103.891742)"><g><path d="M 8.53125 0.203125 C 7.09375 0.203125 5.789062 -0.109375 4.625 -0.734375 C 3.457031 -1.367188 2.539062 -2.242188 1.875 -3.359375 C 1.21875 -4.472656 0.890625 -5.71875 0.890625 -7.09375 C 0.890625 -8.476562 1.21875 -9.726562 1.875 -10.84375 C 2.539062 -11.957031 3.457031 -12.828125 4.625 -13.453125 C 5.789062 -14.085938 7.09375 -14.40625 8.53125 -14.40625 C 9.976562 -14.40625 11.285156 -14.085938 12.453125 -13.453125 C 13.617188 -12.828125 14.53125 -11.957031 15.1875 -10.84375 C 15.851562 -9.738281 16.1875 -8.488281 16.1875 -7.09375 C 16.1875 -5.707031 15.851562 -4.457031 15.1875 -3.34375 C 14.53125 -2.238281 13.617188 -1.367188 12.453125 -0.734375 C 11.285156 -0.109375 9.976562 0.203125 8.53125 0.203125 Z M 8.53125 -2.109375 C 9.476562 -2.109375 10.332031 -2.320312 11.09375 -2.75 C 11.851562 -3.175781 12.445312 -3.769531 12.875 -4.53125 C 13.3125 -5.289062 13.53125 -6.144531 13.53125 -7.09375 C 13.53125 -8.039062 13.3125 -8.894531 12.875 -9.65625 C 12.445312 -10.425781 11.851562 -11.023438 11.09375 -11.453125 C 10.332031 -11.878906 9.476562 -12.09375 8.53125 -12.09375 C 7.59375 -12.09375 6.742188 -11.878906 5.984375 -11.453125 C 5.222656 -11.023438 4.625 -10.425781 4.1875 -9.65625 C 3.757812 -8.894531 3.546875 -8.039062 3.546875 -7.09375 C 3.546875 -6.144531 3.757812 -5.289062 4.1875 -4.53125 C 4.625 -3.769531 5.222656 -3.175781 5.984375 -2.75 C 6.742188 -2.320312 7.59375 -2.109375 8.53125 -2.109375 Z M 8.53125 -2.109375 "/></g></g></g><g fill="#ffffff" fill-opacity="1"><g transform="translate(259.941587, 103.891742)"><g><path d="M 8.015625 0.203125 C 6.054688 0.203125 4.523438 -0.347656 3.421875 -1.453125 C 2.328125 -2.554688 1.78125 -4.132812 1.78125 -6.1875 L 1.78125 -14.203125 L 4.421875 -14.203125 L 4.421875 -6.28125 C 4.421875 -3.5 5.625 -2.109375 8.03125 -2.109375 C 10.425781 -2.109375 11.625 -3.5 11.625 -6.28125 L 11.625 -14.203125 L 14.21875 -14.203125 L 14.21875 -6.1875 C 14.21875 -4.132812 13.671875 -2.554688 12.578125 -1.453125 C 11.492188 -0.347656 9.972656 0.203125 8.015625 0.203125 Z M 8.015625 0.203125 "/></g></g></g><g fill="#ffffff" fill-opacity="1"><g transform="translate(277.356164, 103.891742)"><g><path d="M 11.1875 0 L 8.296875 -4.15625 C 8.171875 -4.144531 7.988281 -4.140625 7.75 -4.140625 L 4.546875 -4.140625 L 4.546875 0 L 1.90625 0 L 1.90625 -14.203125 L 7.75 -14.203125 C 8.976562 -14.203125 10.046875 -14 10.953125 -13.59375 C 11.867188 -13.1875 12.570312 -12.601562 13.0625 -11.84375 C 13.550781 -11.082031 13.796875 -10.179688 13.796875 -9.140625 C 13.796875 -8.078125 13.535156 -7.160156 13.015625 -6.390625 C 12.492188 -5.617188 11.742188 -5.046875 10.765625 -4.671875 L 14.03125 0 Z M 11.140625 -9.140625 C 11.140625 -10.046875 10.835938 -10.742188 10.234375 -11.234375 C 9.640625 -11.722656 8.769531 -11.96875 7.625 -11.96875 L 4.546875 -11.96875 L 4.546875 -6.3125 L 7.625 -6.3125 C 8.769531 -6.3125 9.640625 -6.554688 10.234375 -7.046875 C 10.835938 -7.535156 11.140625 -8.234375 11.140625 -9.140625 Z M 11.140625 -9.140625 "/></g></g></g><g fill="#ffffff" fill-opacity="1"><g transform="translate(293.595025, 103.891742)"><g/></g></g><g fill="#ffffff" fill-opacity="1"><g transform="translate(300.61055, 103.891742)"><g><path d="M 1.90625 -14.203125 L 4.546875 -14.203125 L 4.546875 -2.234375 L 11.96875 -2.234375 L 11.96875 0 L 1.90625 0 Z M 1.90625 -14.203125 "/></g></g></g><g fill="#ffffff" fill-opacity="1"><g transform="translate(314.173615, 103.891742)"><g><path d="M 1.90625 -14.203125 L 4.546875 -14.203125 L 4.546875 0 L 1.90625 0 Z M 1.90625 -14.203125 "/></g></g></g><g fill="#ffffff" fill-opacity="1"><g transform="translate(322.060794, 103.891742)"><g><path d="M 4.546875 -11.984375 L 4.546875 -7.671875 L 11.390625 -7.671875 L 11.390625 -5.4375 L 4.546875 -5.4375 L 4.546875 0 L 1.90625 0 L 1.90625 -14.203125 L 12.265625 -14.203125 L 12.265625 -11.984375 Z M 4.546875 -11.984375 "/></g></g></g><g fill="#ffffff" fill-opacity="1"><g transform="translate(336.394165, 103.891742)"><g><path d="M 12.546875 -2.203125 L 12.546875 0 L 1.90625 0 L 1.90625 -14.203125 L 12.265625 -14.203125 L 12.265625 -11.984375 L 4.546875 -11.984375 L 4.546875 -8.296875 L 11.390625 -8.296875 L 11.390625 -6.125 L 4.546875 -6.125 L 4.546875 -2.203125 Z M 12.546875 -2.203125 "/></g></g></g></svg>